<svg width="512" height="512" viewBox="0 0 512 512" fill="none" xmlns="http://www.w3.org/2000/svg">
<path d="M480 224H32C14.327 224 0 238.327 0 256C0 273.673 14.327 288 32 288H480C497.673 288 512 273.673 512 256C512 238.327 497.673 224 480 224Z" fill="white"/>
<path d="M32 138.668H480C497.673 138.668 512 124.341 512 106.668C512 88.995 497.673 74.668 480 74.668H32C14.327 74.668 0 88.995 0 106.668C0 124.341 14.327 138.668 32 138.668Z" fill="white"/>
<path d="M480 373.336H32C14.327 373.336 0 387.663 0 405.336C0 423.009 14.327 437.336 32 437.336H480C497.673 437.336 512 423.009 512 405.336C512 387.663 497.673 373.336 480 373.336Z" fill="white"/>
</svg>
